<?xml version="1.0" encoding="UTF-8"?>
<svg width="96" height="96" viewBox="0 0 96 96" xmlns="http://www.w3.org/2000/svg" role="img" aria-labelledby="title">
  <title id="title">Réserver sa place</title>
  <defs>
    <linearGradient id="bg3" x1="0%" y1="0%" x2="100%" y2="100%">
      <stop offset="0" stop-color="#FFF9E5"/>
      <stop offset="1" stop-color="#FFE082"/>
    </linearGradient>
  </defs>
  <rect x="8" y="8" width="80" height="80" rx="24" fill="url(#bg3)"/>
  <path d="M30 32h36v32c0 6.627-5.373 12-12 12H42c-6.627 0-12-5.373-12-12V32Z" fill="#FFFFFF"/>
  <path d="M36 24h24l2 8H34l2-8Z" fill="#2196F3"/>
  <circle cx="48" cy="54" r="10" fill="#2196F3" opacity="0.12"/>
  <path d="M48 46a8 8 0 1 1 0 16 8 8 0 0 1 0-16Zm0 4.5-4 4 2 2 2-2 2 2 2-2-4-4Z" fill="#1A3A5F"/>
  <rect x="40" y="66" width="16" height="4" rx="2" fill="#FFC107"/>
</svg>
